# xmcd
#
# Track frame offsets: 
#        150
#        14750
#        33694
#        51541
#        68948
#        84352
#        100286
#        115114
#        131219
#        149620
#        164966
#        179915
#
# Disc length: 2650 seconds
#
# Revision: 1
# Processed by: cddbd v1.5.2PL0 Copyright (c) Steve Scherf et al.
# Submitted via: ExactAudioCopy v1.2
#
DISCID=c50a580c
DTITLE=Sheryl Crow - Feels Like Home
DYEAR=2013
DGENRE=Rock, Country, Ballad, Pop, Folk, World and Country
TTITLE0=Shotgun
TTITLE1=Easy
TTITLE2=Give It To Me
TTITLE3=We Ought Be Drinkin'
TTITLE4=Callin' Me When I'm Lonely
TTITLE5=Waterproof Mascara
TTITLE6=Crazy Ain't Original
TTITLE7=Nobody's Business
TTITLE8=Homesick
TTITLE9=Homecoming Queen
TTITLE10=Best Of Times
TTITLE11=Stay At Home Mother
EXTD=
EXTT0=
EXTT1=
EXTT2=
EXTT3=
EXTT4=
EXTT5=
EXTT6=
EXTT7=
EXTT8=
EXTT9=
EXTT10=
EXTT11=
PLAYORDER=
